HIERARCHY
ROOT Hips
{
	OFFSET	0.00	0.00	0.00
	CHANNELS 6 Xposition Yposition Zposition Zrotation Xrotation Yrotation
	JOINT Spine
	{
		OFFSET	 0.00	0.01	 0.00
		CHANNELS 3 Zrotation Xrotation Yrotation
		JOINT Spine1
		{
			OFFSET	 0.00	 2.45913012437421	 0.00
			CHANNELS 3 Zrotation Xrotation Yrotation
            JOINT Neck
            {
                OFFSET	 0.00	 2.48462964506057	 0.00
                CHANNELS 3 Zrotation Xrotation Yrotation
                JOINT Head
                {
                    OFFSET	 0.00	 0.927524780924562	 0.00
                    CHANNELS 3 Zrotation Xrotation Yrotation
                    End Site 
                    {
                        OFFSET	 0.00	 1.14999962169752	 0.00
                    }
                }
            }
			JOINT LeftShoulder
			{
				OFFSET	 0.00	 2.48462964506057	 0.00
				CHANNELS 3 Zrotation Xrotation Yrotation
				JOINT LeftUpArm
				{
					OFFSET	 0.00	 1.24881979654096	 0.00
					CHANNELS 3 Zrotation Xrotation Yrotation
					JOINT LeftForeArm
					{
						OFFSET	 0.00	2.59758046908119	 0.00
						CHANNELS 3 Zrotation Xrotation Yrotation
						JOINT LeftHand
						{
							OFFSET	 0.00	2.45542024364365	 0.00
							CHANNELS 3 Zrotation Xrotation Yrotation
							JOINT LeftHandThumb 
							{
								OFFSET	 0.00	0.00	 0.00
								CHANNELS 3 Zrotation Xrotation Yrotation
								End Site
								{
									OFFSET	 0.00	0.00	1.00000003353624
								}
							}
							JOINT L_Wrist_End 
							{
								OFFSET	 0.00	0.99999967115358	 0.00
								CHANNELS 3 Zrotation Xrotation Yrotation
								End Site 
								{
									OFFSET	 0.00	 0.00	 0.00
								}
							}
						}
					}
				}
			}
			JOINT RightShoulder
			{
				OFFSET	 0.00	 2.48462964506057	 0.00
				CHANNELS 3 Zrotation Xrotation Yrotation
				JOINT RightUpArm
				{
					OFFSET	 0.00	 1.24881979654096	 0.00
					CHANNELS 3 Zrotation Xrotation Yrotation
					JOINT RightForeArm
					{
						OFFSET	 0.00	2.59758046908119	 0.00
						CHANNELS 3 Zrotation Xrotation Yrotation
						JOINT RightHand
						{
							OFFSET	 0.00	2.45542024364365	 0.00
							CHANNELS 3 Zrotation Xrotation Yrotation
							JOINT RightHandThumb 
							{
								OFFSET	 0.00	0.00	 0.00
								CHANNELS 3 Zrotation Xrotation Yrotation
								End Site
								{
									OFFSET	 0.00	0.00	1.00000003353624
								}
							}
							JOINT R_Wrist_End 
							{
								OFFSET	 0.00	0.99999967115358	 0.00
								CHANNELS 3 Zrotation Xrotation Yrotation
								End Site 
								{
									OFFSET	 0.00	 0.00	 0.00
								}
							}
						}
					}
				}
			}
		}
	}
	JOINT LeftUpLeg
	{
		OFFSET	 1.2719394002717	 0.00	 0.00
		CHANNELS 3 Zrotation Xrotation Yrotation
		JOINT LeftLowLeg
		{
			OFFSET	 0.00	-4.3429100912261	 0.00
			CHANNELS 3 Zrotation Xrotation Yrotation
			JOINT LeftFoot
			{
				OFFSET	 0.00	-4.48767017425826	 0.00
				CHANNELS 3 Zrotation Xrotation Yrotation
				JOINT LeftToeBase
                {
                    OFFSET	 0.00	0.00	 1.51507020887566
                    CHANNELS 3 Zrotation Xrotation Yrotation
                    End Site 
                    {
                        OFFSET	 0.00	0.00	 0.75000010571191
                    }
                }
			}
		}
	}
	JOINT RightUpLeg
	{
		OFFSET	 -1.2719393604653	 0.00	 0.00
		CHANNELS 3 Zrotation Xrotation Yrotation
		JOINT RightLowLeg
		{
			OFFSET	 0.00	-4.3429100912261	 0.00
			CHANNELS 3 Zrotation Xrotation Yrotation
			JOINT RightFoot
			{
				OFFSET	 0.00	-4.48767017425826	 0.00
				CHANNELS 3 Zrotation Xrotation Yrotation
				JOINT RightToeBase
                {
                    OFFSET	 0.00	0.00	 1.51507020887566
                    CHANNELS 3 Zrotation Xrotation Yrotation
                    End Site 
                    {
                        OFFSET	 0.00	0.00	 0.749999965609858
                    }
                }   
			}
		}
	}
}
MOTION 
Frames:	13 
Frame Time: 0.02 
 -2.554859924316406 -1.6484199523925782 9.388980102539062 -147.327 74.664 167.916 5.96487 -28.5627 -0.119663 -3.42108 10.2271 0.557345 13.5384 30.037 -5.75108 -54.7246 -71.1371 1038.18 -118.1858 4.96687 14.689 -45.8636 21.2238 -177.518 0.0 -35.2489 0.0 10.8791 -10.6154 -135.948 0.0 0.0 0.0 0.0 0.0 0.0 123.433395 -1.12752 -10.6533 39.8911 19.832 -382.077 0.0 23.7872 0.0 -1.7787 -2.04002 -9.94684 0.0 0.0 0.0 0.0 0.0 0.0 -1.24589 -10.6619 -24.0461 0.0 5.22956 0.0 1.14749 -2.0904999 20.8819 0.0 -11.58768 0.0 8.80464 -9.24361 394.299 0.0 3.52505 0.0 3.37432 3.2329998 -27.4613 0.0 -16.86766 0.0 
  -2.5436000061035156 -1.6647099304199218 9.387310180664063 -146.945 74.5992 168.188 5.94467 -28.9671 -0.401477 -3.59398 10.7229 0.314723 13.8771 29.528 -5.97264 -53.7773 -71.2419 1039.11 -118.246 4.69771 14.6936 -46.0504 19.8803 -178.592 0.0 -32.4502 0.0 10.9894 -10.1472 -137.827 0.0 0.0 0.0 0.0 0.0 0.0 123.5289 -1.37421 -10.4749 40.1248 18.6433 -382.149 0.0 22.6744 0.0 -1.27178 -1.98021 -12.2929 0.0 0.0 0.0 0.0 0.0 0.0 -1.28702 -10.6509 -24.7082 0.0 5.20815 0.0 1.24557 -2.0613995 20.9518 0.0 -11.58586 0.0 8.72369 -9.0319 393.515 0.0 3.22452 0.0 3.02279 3.3051004 -27.5548 0.0 -16.84779 0.0 
  -2.547480010986328 -1.6540800476074218 9.385029907226562 -147.486 74.4289 167.971 6.42472 -28.7235 0.37764 -4.10774 10.6171 0.628039 15.0274 29.0723 -6.68804 -53.4213 -71.7291 1039.82 -117.6867 4.31829 14.3818 -48.1421 19.3088 -185.747 0.0 -27.344 0.0 14.9906 -10.197 -132.409 0.0 0.0 0.0 0.0 0.0 0.0 123.898605 -1.46819 -10.368 40.3996 17.457 -381.209 0.0 20.985 0.0 -0.388039 -2.09725 -13.9378 0.0 0.0 0.0 0.0 0.0 0.0 -1.24844 -10.8061 -23.9129 0.0 5.17024 0.0 1.25866 -2.1879005 20.9161 0.0 -11.56531 0.0 8.85537 -9.48609 394.576 0.0 3.6775 0.0 3.37045 3.0354996 -27.5985 0.0 -16.86073 0.0 
  -2.544420013427734 -1.64927001953125 9.403159790039062 -147.417 74.3236 168.101 7.80409 -28.2418 1.33482 -5.88983 11.1659 0.0484372 15.3383 26.3647 -7.18176 -51.6956 -72.5333 1041.71 -127.357605 -6.05691 15.7555 -22.6287 30.8364 -311.185 0.0 29.8081 0.0 21.0457 -12.6439 3.58272 0.0 0.0 0.0 0.0 0.0 0.0 125.295105 -2.45406 -9.78928 40.2034 17.2785 -380.359 0.0 19.1279 0.0 0.241789 -1.95096 -15.793 0.0 0.0 0.0 0.0 0.0 0.0 -1.28881 -11.0017 -24.1243 0.0 5.23889 0.0 1.258 -1.6401997 20.9318 0.0 -11.68031 0.0 8.84306 -9.63427 394.439 0.0 3.68173 0.0 3.28546 3.6266003 -27.7334 0.0 -17.00753 0.0 
  -2.5373599243164064 -1.6632099914550782 9.385430297851563 -147.379 74.1318 168.17 5.93057 -28.8835 -0.329181 -2.50768 10.7336 0.460607 12.7716 28.9518 -5.20959 -54.5042 -71.8544 1036.86 -121.1326 3.5563 14.7798 -40.2205 16.344 -337.233 0.0 25.8151 0.0 11.2687 -8.25316 20.8037 0.0 0.0 0.0 0.0 0.0 0.0 123.0495 -1.77798 -10.2481 41.0063 15.221 -379.17 0.0 17.3893 0.0 0.624571 -2.56076 -15.963 0.0 0.0 0.0 0.0 0.0 0.0 -1.26774 -11.0553 -24.2133 0.0 5.17843 0.0 1.37159 -2.1576996 20.9645 0.0 -11.53954 0.0 8.87331 -9.67314 394.449 0.0 3.64335 0.0 3.15472 3.0977 -27.8654 0.0 -16.94971 0.0 
  -2.534770050048828 -1.67406005859375 9.384769897460938 -147.27 74.2241 168.115 5.81393 -28.9927 -0.487982 -2.4379 11.2975 0.459463 13.102 28.3793 -5.33046 -53.9573 -72.1302 1037.33 -121.1696 3.35387 14.6027 -40.7747 14.9285 -337.885 0.0 21.5496 0.0 10.7771 -9.44782 19.9075 0.0 0.0 0.0 0.0 0.0 0.0 123.1743 -2.02084 -10.0268 40.7339 13.792 -380.025 0.0 16.6428 0.0 -0.0612995 -3.43669 -15.1633 0.0 0.0 0.0 0.0 0.0 0.0 -1.23089 -10.835 -24.2283 0.0 5.04834 0.0 1.40723 -2.1436996 20.9657 0.0 -11.54805 0.0 8.88515 -9.48097 394.404 0.0 3.59291 0.0 2.99366 3.1387997 -28.0013 0.0 -16.95264 0.0 
  -2.534040069580078 -1.6647500610351562 9.381719970703125 -147.784 73.6935 168.526 6.12362 -29.0608 -0.145158 -2.81838 11.0414 0.468876 13.6685 28.0218 -5.6066 -53.8833 -72.4929 1037.32 -121.087 3.23577 14.5143 -41.2559 13.3288 -339.174 0.0 17.4173 0.0 9.8538 -10.6721 19.3812 0.0 0.0 0.0 0.0 0.0 0.0 123.2572 -2.22999 -9.8487 41.0622 12.676 -378.027 0.0 14.5715 0.0 0.660462 -3.73531 -15.8289 0.0 0.0 0.0 0.0 0.0 0.0 -1.30049 -11.4791 -24.188 0.0 5.17201 0.0 1.38834 -2.2546997 20.9702 0.0 -11.52501 0.0 8.88287 -10.1298 394.607 0.0 3.7173 0.0 3.13809 2.9490995 -27.9235 0.0 -16.95911 0.0 
  -2.527279968261719 -1.6749000549316406 9.3806201171875 -147.316 73.6058 168.565 6.35215 -29.0603 -0.0828652 -3.28728 11.0155 0.225469 14.3582 27.7449 -6.04113 -53.5944 -72.7531 1037.54 -120.7383 3.09203 14.4821 -41.8245 11.7006 -340.662 0.0 13.6523 0.0 9.04735 -12.1963 20.9324 0.0 0.0 0.0 0.0 0.0 0.0 123.3575 -2.72273 -9.70935 41.2899 11.518 -377.028 0.0 12.8854 0.0 0.490082 -4.02175 -15.644 0.0 0.0 0.0 0.0 0.0 0.0 -1.27898 -11.542 -24.7091 0.0 5.2065 0.0 1.40746 -2.2903004 20.991 0.0 -11.52189 0.0 8.86421 -9.99627 394.091 0.0 3.4523 0.0 2.92605 3.0376997 -28.045 0.0 -16.93634 0.0 
  -2.5268600463867186 -1.67427001953125 9.379509887695313 -147.533 73.4599 168.592 6.58467 -28.8295 0.23312 -3.55169 10.7336 0.25918 14.812 27.5724 -6.27203 -53.675 -73.0224 1037.35 -120.4306 2.90429 14.4211 -42.2826 10.0984 -342.645 0.0 10.1989 0.0 7.93545 -13.5948 23.8611 0.0 0.0 0.0 0.0 0.0 0.0 123.3907 -3.01237 -9.6385 41.373 10.3288 -375.705 0.0 11.3821 0.0 0.305849 -4.53375 -14.5282 0.0 0.0 0.0 0.0 0.0 0.0 -1.27545 -11.6664 -24.516 0.0 5.18674 0.0 1.44715 -2.3241997 21.0005 0.0 -11.52593 0.0 8.86719 -10.1546 394.18 0.0 3.45825 0.0 2.94218 3.0240002 -27.9276 0.0 -16.94044 0.0 
  -2.522570037841797 -1.6802999877929687 9.37947998046875 -147.654 73.3284 168.672 6.4915 -28.9359 0.083577 -3.29459 10.982 0.252477 14.5792 27.1962 -6.00897 -53.5016 -73.1693 1037.26 -120.243 2.5713 14.0096 -42.7007 8.4054 -344.212 0.0 7.46767 0.0 6.87814 -15.0115 27.7555 0.0 0.0 0.0 0.0 0.0 0.0 123.056305 -3.1744 -9.37847 41.5176 9.17547 -374.247 0.0 9.98912 0.0 0.677973 -5.53867 -17.2584 0.0 0.0 0.0 0.0 0.0 0.0 -1.27526 -11.712 -24.4644 0.0 5.1011 0.0 1.49774 -2.2992992 21.0255 0.0 -11.50479 0.0 8.83258 -10.2063 394.173 0.0 3.36816 0.0 2.89884 3.0555 -27.9002 0.0 -16.92045 0.0 
  -2.5213299560546876 -1.6828799438476563 9.378670043945313 -147.735 73.2424 168.805 6.70863 -28.6021 0.329904 -3.68306 10.4829 0.163648 14.9921 27.2699 -6.18803 -53.7391 -73.3877 1036.87 -119.6653 2.29699 13.9562 -43.0011 6.52752 -345.096 0.0 5.49754 0.0 5.79229 -16.4479 31.2572 0.0 0.0 0.0 0.0 0.0 0.0 123.132 -3.61082 -9.32831 41.4987 7.95243 -372.701 0.0 8.86066 0.0 0.747751 -6.08836 -17.7919 0.0 0.0 0.0 0.0 0.0 0.0 -1.29115 -11.7878 -24.4913 0.0 5.0973 0.0 1.51468 -2.3090992 20.9937 0.0 -11.50095 0.0 8.81279 -10.2665 394.066 0.0 3.34483 0.0 2.85159 3.0398998 -27.8609 0.0 -16.9495 0.0 
  -2.5198899841308595 -1.6891900634765624 9.379459838867188 -147.912 73.1213 168.927 6.28119 -28.872 -0.223589 -2.99955 11.0 0.137011 14.2899 26.9962 -5.48579 -53.8288 -73.552 1036.51 -119.515 1.71999 13.2005 -43.2877 4.63348 -345.471 0.0 4.26448 0.0 4.49653 -17.5734 34.3022 0.0 0.0 0.0 0.0 0.0 0.0 122.591 -3.4824 -9.16937 41.489 6.80719 -371.692 0.0 8.02936 0.0 0.44586 -6.59528 -18.5688 0.0 0.0 0.0 0.0 0.0 0.0 -1.28362 -11.8334 -24.396 0.0 5.0173 0.0 1.52021 -2.2723007 20.9559 0.0 -11.52599 0.0 8.80807 -10.3526 394.079 0.0 3.34061 0.0 2.75695 3.0910997 -27.8656 0.0 -16.95026 0.0 
  -2.5176300048828124 -1.6900399780273438 9.378510131835938 -148.046 73.1018 168.895 6.6907 -28.2454 0.383256 -3.49543 10.1632 0.204766 14.8235 27.1502 -5.86687 -54.5256 -73.7226 1035.83 -118.8801 1.46569 13.266 -43.3255 2.53402 -345.418 0.0 3.83858 0.0 2.50568 -18.2984 37.2596 0.0 0.0 0.0 0.0 0.0 0.0 122.7321 -4.19634 -9.0375 41.3499 5.59563 -370.373 0.0 7.31148 0.0 0.432908 -6.9853 -18.8835 0.0 0.0 0.0 0.0 0.0 0.0 -1.29412 -11.8182 -24.2266 0.0 4.99684 0.0 1.56959 -2.2968998 20.9738 0.0 -11.51717 0.0 8.81224 -10.4026 394.264 0.0 3.41947 0.0 2.79075 3.0245 -27.8531 0.0 -16.95934 0.0 
